<?xml version="1.0" encoding="UTF-8"?>
<svg width="206px" height="202px" viewBox="0 0 206 202" version="1.1" xmlns="http://www.w3.org/2000/svg" xmlns:xlink="http://www.w3.org/1999/xlink">
    <!-- Generator: Sketch 52.3 (67297) - http://www.bohemiancoding.com/sketch -->
    <title>Artboard</title>
    <desc>Created with Sketch.</desc>
    <g id="Artboard" stroke="none" stroke-width="1" fill="none" fill-rule="evenodd">
        <g id="Group" transform="translate(1.000000, 1.000000)">
            <path d="M8.571,7.128 C6.602,7.128 5.006,5.532 5.006,3.564 C5.006,1.595 6.602,0 8.571,0 C10.539,0 12.134,1.595 12.134,3.564 C12.134,5.532 10.539,7.128 8.571,7.128" id="Fill-1" fill="#0078AE"></path>
            <path d="M8.571,7.128 C6.602,7.128 5.006,5.532 5.006,3.564 C5.006,1.595 6.602,0 8.571,0 C10.539,0 12.134,1.595 12.134,3.564 C12.134,5.532 10.539,7.128 8.571,7.128" id="Fill-2" fill="#0078AE"></path>
            <path d="M8.571,7.128 C6.602,7.128 5.006,5.532 5.006,3.564 C5.006,1.595 6.602,0 8.571,0 C10.539,0 12.134,1.595 12.134,3.564 C12.134,5.532 10.539,7.128 8.571,7.128" id="Fill-3" fill="#0078AE"></path>
            <path d="M32.908,19.941 C29.551,19.941 26.83,17.221 26.83,13.864 C26.83,10.508 29.551,7.786 32.908,7.786 C36.265,7.786 38.985,10.508 38.985,13.864 C38.985,17.221 36.265,19.941 32.908,19.941" id="Fill-4" fill="#0078AE"></path>
            <path d="M32.908,19.941 C29.551,19.941 26.83,17.221 26.83,13.864 C26.83,10.508 29.551,7.786 32.908,7.786 C36.265,7.786 38.985,10.508 38.985,13.864 C38.985,17.221 36.265,19.941 32.908,19.941" id="Fill-5" fill="#0078AE"></path>
            <path d="M32.908,19.941 C29.551,19.941 26.83,17.221 26.83,13.864 C26.83,10.508 29.551,7.786 32.908,7.786 C36.265,7.786 38.985,10.508 38.985,13.864 C38.985,17.221 36.265,19.941 32.908,19.941" id="Fill-6" fill="#0078AE"></path>
            <path d="M53.668,38.085 C49.324,38.085 45.802,34.563 45.802,30.219 C45.802,25.875 49.324,22.354 53.668,22.354 C58.012,22.354 61.532,25.875 61.532,30.219 C61.532,34.563 58.012,38.085 53.668,38.085" id="Fill-7" fill="#0078AE"></path>
            <path d="M53.668,38.085 C49.324,38.085 45.802,34.563 45.802,30.219 C45.802,25.875 49.324,22.354 53.668,22.354 C58.012,22.354 61.532,25.875 61.532,30.219 C61.532,34.563 58.012,38.085 53.668,38.085" id="Fill-8" fill="#0078AE"></path>
            <path d="M53.668,38.085 C49.324,38.085 45.802,34.563 45.802,30.219 C45.802,25.875 49.324,22.354 53.668,22.354 C58.012,22.354 61.532,25.875 61.532,30.219 C61.532,34.563 58.012,38.085 53.668,38.085" id="Fill-9" fill="#0078AE"></path>
            <path d="M69.41,60.518 C64.401,60.518 60.34,56.456 60.34,51.447 C60.34,46.437 64.401,42.377 69.41,42.377 C74.42,42.377 78.48,46.437 78.48,51.447 C78.48,56.456 74.42,60.518 69.41,60.518" id="Fill-10" fill="#0078AE"></path>
            <path d="M69.41,60.518 C64.401,60.518 60.34,56.456 60.34,51.447 C60.34,46.437 64.401,42.377 69.41,42.377 C74.42,42.377 78.48,46.437 78.48,51.447 C78.48,56.456 74.42,60.518 69.41,60.518" id="Fill-11" fill="#0078AE"></path>
            <path d="M69.41,60.518 C64.401,60.518 60.34,56.456 60.34,51.447 C60.34,46.437 64.401,42.377 69.41,42.377 C74.42,42.377 78.48,46.437 78.48,51.447 C78.48,56.456 74.42,60.518 69.41,60.518" id="Fill-12" fill="#0078AE"></path>
            <path d="M78.988,85.803 C73.617,85.803 69.263,81.448 69.263,76.077 C69.263,70.706 73.617,66.352 78.988,66.352 C84.36,66.352 88.715,70.706 88.715,76.077 C88.715,81.448 84.36,85.803 78.988,85.803" id="Fill-13" fill="#0078AE"></path>
            <path d="M78.988,85.803 C73.617,85.803 69.263,81.448 69.263,76.077 C69.263,70.706 73.617,66.352 78.988,66.352 C84.36,66.352 88.715,70.706 88.715,76.077 C88.715,81.448 84.36,85.803 78.988,85.803" id="Fill-14" fill="#0078AE"></path>
            <path d="M78.988,85.803 C73.617,85.803 69.263,81.448 69.263,76.077 C69.263,70.706 73.617,66.352 78.988,66.352 C84.36,66.352 88.715,70.706 88.715,76.077 C88.715,81.448 84.36,85.803 78.988,85.803" id="Fill-15" fill="#0078AE"></path>
            <path d="M81.713,112.295 C76.228,112.295 71.781,107.849 71.781,102.364 C71.781,96.879 76.228,92.434 81.713,92.434 C87.198,92.434 91.644,96.879 91.644,102.364 C91.644,107.849 87.198,112.295 81.713,112.295" id="Fill-16" fill="#0078AE"></path>
            <path d="M81.713,112.295 C76.228,112.295 71.781,107.849 71.781,102.364 C71.781,96.879 76.228,92.434 81.713,92.434 C87.198,92.434 91.644,96.879 91.644,102.364 C91.644,107.849 87.198,112.295 81.713,112.295" id="Fill-17" fill="#0078AE"></path>
            <path d="M81.713,112.295 C76.228,112.295 71.781,107.849 71.781,102.364 C71.781,96.879 76.228,92.434 81.713,92.434 C87.198,92.434 91.644,96.879 91.644,102.364 C91.644,107.849 87.198,112.295 81.713,112.295" id="Fill-18" fill="#0078AE"></path>
            <path d="M77.459,138.083 C72.137,138.083 67.824,133.77 67.824,128.447 C67.824,123.126 72.137,118.812 77.459,118.812 C82.781,118.812 87.095,123.126 87.095,128.447 C87.095,133.77 82.781,138.083 77.459,138.083" id="Fill-19" fill="#0078AE"></path>
            <path d="M77.459,138.083 C72.137,138.083 67.824,133.77 67.824,128.447 C67.824,123.126 72.137,118.812 77.459,118.812 C82.781,118.812 87.095,123.126 87.095,128.447 C87.095,133.77 82.781,138.083 77.459,138.083" id="Fill-20" fill="#0078AE"></path>
            <path d="M77.459,138.083 C72.137,138.083 67.824,133.77 67.824,128.447 C67.824,123.126 72.137,118.812 77.459,118.812 C82.781,118.812 87.095,123.126 87.095,128.447 C87.095,133.77 82.781,138.083 77.459,138.083" id="Fill-21" fill="#0078AE"></path>
            <path d="M66.448,161.345 C61.547,161.345 57.575,157.372 57.575,152.47 C57.575,147.57 61.547,143.597 66.448,143.597 C71.35,143.597 75.322,147.57 75.322,152.47 C75.322,157.372 71.35,161.345 66.448,161.345" id="Fill-22" fill="#0078AE"></path>
            <path d="M66.448,161.345 C61.547,161.345 57.575,157.372 57.575,152.47 C57.575,147.57 61.547,143.597 66.448,143.597 C71.35,143.597 75.322,147.57 75.322,152.47 C75.322,157.372 71.35,161.345 66.448,161.345" id="Fill-23" fill="#0078AE"></path>
            <path d="M66.448,161.345 C61.547,161.345 57.575,157.372 57.575,152.47 C57.575,147.57 61.547,143.597 66.448,143.597 C71.35,143.597 75.322,147.57 75.322,152.47 C75.322,157.372 71.35,161.345 66.448,161.345" id="Fill-24" fill="#0078AE"></path>
            <path d="M49.495,180.314 C45.317,180.314 41.927,176.926 41.927,172.746 C41.927,168.566 45.317,165.177 49.495,165.177 C53.675,165.177 57.064,168.566 57.064,172.746 C57.064,176.926 53.675,180.314 49.495,180.314" id="Fill-25" fill="#0078AE"></path>
            <path d="M49.495,180.314 C45.317,180.314 41.927,176.926 41.927,172.746 C41.927,168.566 45.317,165.177 49.495,165.177 C53.675,165.177 57.064,168.566 57.064,172.746 C57.064,176.926 53.675,180.314 49.495,180.314" id="Fill-26" fill="#0078AE"></path>
            <path d="M49.495,180.314 C45.317,180.314 41.927,176.926 41.927,172.746 C41.927,168.566 45.317,165.177 49.495,165.177 C53.675,165.177 57.064,168.566 57.064,172.746 C57.064,176.926 53.675,180.314 49.495,180.314" id="Fill-27" fill="#0078AE"></path>
            <path d="M27.818,193.482 C24.713,193.482 22.197,190.966 22.197,187.862 C22.197,184.757 24.713,182.241 27.818,182.241 C30.922,182.241 33.438,184.757 33.438,187.862 C33.438,190.966 30.922,193.482 27.818,193.482" id="Fill-28" fill="#0078AE"></path>
            <path d="M27.818,193.482 C24.713,193.482 22.197,190.966 22.197,187.862 C22.197,184.757 24.713,182.241 27.818,182.241 C30.922,182.241 33.438,184.757 33.438,187.862 C33.438,190.966 30.922,193.482 27.818,193.482" id="Fill-29" fill="#0078AE"></path>
            <path d="M27.818,193.482 C24.713,193.482 22.197,190.966 22.197,187.862 C22.197,184.757 24.713,182.241 27.818,182.241 C30.922,182.241 33.438,184.757 33.438,187.862 C33.438,190.966 30.922,193.482 27.818,193.482" id="Fill-30" fill="#0078AE"></path>
            <path d="M2.917,199.628 C1.306,199.628 -1.42108547e-14,198.324 -1.42108547e-14,196.712 C-1.42108547e-14,195.101 1.306,193.795 2.917,193.795 C4.528,193.795 5.833,195.101 5.833,196.712 C5.833,198.324 4.528,199.628 2.917,199.628" id="Fill-31" fill="#0078AE"></path>
            <path d="M2.917,199.628 C1.306,199.628 -1.42108547e-14,198.324 -1.42108547e-14,196.712 C-1.42108547e-14,195.101 1.306,193.795 2.917,193.795 C4.528,193.795 5.833,195.101 5.833,196.712 C5.833,198.324 4.528,199.628 2.917,199.628" id="Fill-32" fill="#0078AE"></path>
            <path d="M2.917,199.628 C1.306,199.628 -1.42108547e-14,198.324 -1.42108547e-14,196.712 C-1.42108547e-14,195.101 1.306,193.795 2.917,193.795 C4.528,193.795 5.833,195.101 5.833,196.712 C5.833,198.324 4.528,199.628 2.917,199.628" id="Fill-33" fill="#0078AE"></path>
            <path d="M195.62,7.128 C193.653,7.128 192.058,5.532 192.058,3.564 C192.058,1.596 193.653,0 195.62,0 C197.589,0 199.185,1.596 199.185,3.564 C199.185,5.532 197.589,7.128 195.62,7.128" id="Fill-34" fill="#808080"></path>
            <path d="M195.62,7.128 C193.653,7.128 192.058,5.532 192.058,3.564 C192.058,1.596 193.653,0 195.62,0 C197.589,0 199.185,1.596 199.185,3.564 C199.185,5.532 197.589,7.128 195.62,7.128" id="Fill-35" fill="#808080"></path>
            <path d="M195.62,7.128 C193.653,7.128 192.058,5.532 192.058,3.564 C192.058,1.596 193.653,0 195.62,0 C197.589,0 199.185,1.596 199.185,3.564 C199.185,5.532 197.589,7.128 195.62,7.128" id="Fill-36" fill="#808080"></path>
            <path d="M171.283,19.942 C167.927,19.942 165.205,17.221 165.205,13.864 C165.205,10.508 167.927,7.787 171.283,7.787 C174.642,7.787 177.362,10.508 177.362,13.864 C177.362,17.221 174.642,19.942 171.283,19.942" id="Fill-37" fill="#808080"></path>
            <path d="M171.283,19.942 C167.927,19.942 165.205,17.221 165.205,13.864 C165.205,10.508 167.927,7.787 171.283,7.787 C174.642,7.787 177.362,10.508 177.362,13.864 C177.362,17.221 174.642,19.942 171.283,19.942" id="Fill-38" fill="#808080"></path>
            <path d="M171.283,19.942 C167.927,19.942 165.205,17.221 165.205,13.864 C165.205,10.508 167.927,7.787 171.283,7.787 C174.642,7.787 177.362,10.508 177.362,13.864 C177.362,17.221 174.642,19.942 171.283,19.942" id="Fill-39" fill="#808080"></path>
            <path d="M150.524,38.085 C146.18,38.085 142.659,34.564 142.659,30.219 C142.659,25.875 146.18,22.355 150.524,22.355 C154.867,22.355 158.39,25.875 158.39,30.219 C158.39,34.564 154.867,38.085 150.524,38.085" id="Fill-40" fill="#808080"></path>
            <path d="M150.524,38.085 C146.18,38.085 142.659,34.564 142.659,30.219 C142.659,25.875 146.18,22.355 150.524,22.355 C154.867,22.355 158.39,25.875 158.39,30.219 C158.39,34.564 154.867,38.085 150.524,38.085" id="Fill-41" fill="#808080"></path>
            <path d="M150.524,38.085 C146.18,38.085 142.659,34.564 142.659,30.219 C142.659,25.875 146.18,22.355 150.524,22.355 C154.867,22.355 158.39,25.875 158.39,30.219 C158.39,34.564 154.867,38.085 150.524,38.085" id="Fill-42" fill="#808080"></path>
            <path d="M134.783,60.519 C129.773,60.519 125.711,56.457 125.711,51.448 C125.711,46.439 129.773,42.377 134.783,42.377 C139.792,42.377 143.853,46.439 143.853,51.448 C143.853,56.457 139.792,60.519 134.783,60.519" id="Fill-43" fill="#808080"></path>
            <path d="M134.783,60.519 C129.773,60.519 125.711,56.457 125.711,51.448 C125.711,46.439 129.773,42.377 134.783,42.377 C139.792,42.377 143.853,46.439 143.853,51.448 C143.853,56.457 139.792,60.519 134.783,60.519" id="Fill-44" fill="#808080"></path>
            <path d="M134.783,60.519 C129.773,60.519 125.711,56.457 125.711,51.448 C125.711,46.439 129.773,42.377 134.783,42.377 C139.792,42.377 143.853,46.439 143.853,51.448 C143.853,56.457 139.792,60.519 134.783,60.519" id="Fill-45" fill="#808080"></path>
            <path d="M125.202,85.803 C119.832,85.803 115.479,81.449 115.479,76.078 C115.479,70.706 119.832,66.352 125.202,66.352 C130.575,66.352 134.93,70.706 134.93,76.078 C134.93,81.449 130.575,85.803 125.202,85.803" id="Fill-46" fill="#808080"></path>
            <path d="M125.202,85.803 C119.832,85.803 115.479,81.449 115.479,76.078 C115.479,70.706 119.832,66.352 125.202,66.352 C130.575,66.352 134.93,70.706 134.93,76.078 C134.93,81.449 130.575,85.803 125.202,85.803" id="Fill-47" fill="#808080"></path>
            <path d="M125.202,85.803 C119.832,85.803 115.479,81.449 115.479,76.078 C115.479,70.706 119.832,66.352 125.202,66.352 C130.575,66.352 134.93,70.706 134.93,76.078 C134.93,81.449 130.575,85.803 125.202,85.803" id="Fill-48" fill="#808080"></path>
            <path d="M122.481,112.296 C116.995,112.296 112.549,107.85 112.549,102.365 C112.549,96.881 116.995,92.435 122.481,92.435 C127.965,92.435 132.411,96.881 132.411,102.365 C132.411,107.85 127.965,112.296 122.481,112.296" id="Fill-49" fill="#808080"></path>
            <path d="M122.481,112.296 C116.995,112.296 112.549,107.85 112.549,102.365 C112.549,96.881 116.995,92.435 122.481,92.435 C127.965,92.435 132.411,96.881 132.411,102.365 C132.411,107.85 127.965,112.296 122.481,112.296" id="Fill-50" fill="#808080"></path>
            <path d="M122.481,112.296 C116.995,112.296 112.549,107.85 112.549,102.365 C112.549,96.881 116.995,92.435 122.481,92.435 C127.965,92.435 132.411,96.881 132.411,102.365 C132.411,107.85 127.965,112.296 122.481,112.296" id="Fill-51" fill="#808080"></path>
            <path d="M126.734,138.084 C121.413,138.084 117.098,133.771 117.098,128.449 C117.098,123.127 121.413,118.813 126.734,118.813 C132.055,118.813 136.369,123.127 136.369,128.449 C136.369,133.771 132.055,138.084 126.734,138.084" id="Fill-52" fill="#808080"></path>
            <path d="M126.734,138.084 C121.413,138.084 117.098,133.771 117.098,128.449 C117.098,123.127 121.413,118.813 126.734,118.813 C132.055,118.813 136.369,123.127 136.369,128.449 C136.369,133.771 132.055,138.084 126.734,138.084" id="Fill-53" fill="#808080"></path>
            <path d="M126.734,138.084 C121.413,138.084 117.098,133.771 117.098,128.449 C117.098,123.127 121.413,118.813 126.734,118.813 C132.055,118.813 136.369,123.127 136.369,128.449 C136.369,133.771 132.055,138.084 126.734,138.084" id="Fill-54" fill="#808080"></path>
            <path d="M137.744,161.346 C132.843,161.346 128.869,157.372 128.869,152.472 C128.869,147.571 132.843,143.597 137.744,143.597 C142.646,143.597 146.618,147.571 146.618,152.472 C146.618,157.372 142.646,161.346 137.744,161.346" id="Fill-55" fill="#808080"></path>
            <path d="M137.744,161.346 C132.843,161.346 128.869,157.372 128.869,152.472 C128.869,147.571 132.843,143.597 137.744,143.597 C142.646,143.597 146.618,147.571 146.618,152.472 C146.618,157.372 142.646,161.346 137.744,161.346" id="Fill-56" fill="#808080"></path>
            <path d="M137.744,161.346 C132.843,161.346 128.869,157.372 128.869,152.472 C128.869,147.571 132.843,143.597 137.744,143.597 C142.646,143.597 146.618,147.571 146.618,152.472 C146.618,157.372 142.646,161.346 137.744,161.346" id="Fill-57" fill="#808080"></path>
            <path d="M154.698,180.314 C150.518,180.314 147.131,176.926 147.131,172.746 C147.131,168.567 150.518,165.178 154.698,165.178 C158.877,165.178 162.266,168.567 162.266,172.746 C162.266,176.926 158.877,180.314 154.698,180.314" id="Fill-58" fill="#808080"></path>
            <path d="M154.698,180.314 C150.518,180.314 147.131,176.926 147.131,172.746 C147.131,168.567 150.518,165.178 154.698,165.178 C158.877,165.178 162.266,168.567 162.266,172.746 C162.266,176.926 158.877,180.314 154.698,180.314" id="Fill-59" fill="#808080"></path>
            <path d="M154.698,180.314 C150.518,180.314 147.131,176.926 147.131,172.746 C147.131,168.567 150.518,165.178 154.698,165.178 C158.877,165.178 162.266,168.567 162.266,172.746 C162.266,176.926 158.877,180.314 154.698,180.314" id="Fill-60" fill="#808080"></path>
            <path d="M176.376,193.482 C173.273,193.482 170.757,190.966 170.757,187.862 C170.757,184.759 173.273,182.242 176.376,182.242 C179.479,182.242 181.995,184.759 181.995,187.862 C181.995,190.966 179.479,193.482 176.376,193.482" id="Fill-61" fill="#808080"></path>
            <path d="M176.376,193.482 C173.273,193.482 170.757,190.966 170.757,187.862 C170.757,184.759 173.273,182.242 176.376,182.242 C179.479,182.242 181.995,184.759 181.995,187.862 C181.995,190.966 179.479,193.482 176.376,193.482" id="Fill-62" fill="#808080"></path>
            <path d="M176.376,193.482 C173.273,193.482 170.757,190.966 170.757,187.862 C170.757,184.759 173.273,182.242 176.376,182.242 C179.479,182.242 181.995,184.759 181.995,187.862 C181.995,190.966 179.479,193.482 176.376,193.482" id="Fill-63" fill="#808080"></path>
            <path d="M201.278,199.628 C199.667,199.628 198.361,198.324 198.361,196.712 C198.361,195.101 199.667,193.795 201.278,193.795 C202.888,193.795 204.194,195.101 204.194,196.712 C204.194,198.324 202.888,199.628 201.278,199.628" id="Fill-64" fill="#808080"></path>
            <path d="M201.278,199.628 C199.667,199.628 198.361,198.324 198.361,196.712 C198.361,195.101 199.667,193.795 201.278,193.795 C202.888,193.795 204.194,195.101 204.194,196.712 C204.194,198.324 202.888,199.628 201.278,199.628" id="Fill-65" fill="#808080"></path>
        </g>
    </g>
</svg>